<svg xmlns="http://www.w3.org/2000/svg" xmlns:xlink="http://www.w3.org/1999/xlink" width="500" zoomAndPan="magnify" viewBox="0 0 375 374.999991" height="500" preserveAspectRatio="xMidYMid meet" version="1.0"><defs><g/><clipPath id="0985618cb6"><path d="M 64 63.96875 L 155 63.96875 L 155 155 L 64 155 Z M 64 63.96875 " clip-rule="nonzero"/></clipPath><clipPath id="4118b77816"><path d="M 220 220 L 310.71875 220 L 310.71875 310.71875 L 220 310.71875 Z M 220 220 " clip-rule="nonzero"/></clipPath><clipPath id="3730d7cbc0"><path d="M 220 64 L 310.71875 64 L 310.71875 155 L 220 155 Z M 220 64 " clip-rule="nonzero"/></clipPath><clipPath id="77dc111881"><path d="M 63.96875 220 L 155 220 L 155 310.71875 L 63.96875 310.71875 Z M 63.96875 220 " clip-rule="nonzero"/></clipPath></defs><rect x="-37.5" width="450" fill="#ffffff" y="-37.499999" height="449.999989" fill-opacity="1"/><rect x="-37.5" width="450" fill="#ffffff" y="-37.499999" height="449.999989" fill-opacity="1"/><g fill="#232323" fill-opacity="1"><g transform="translate(113.494442, 219.696725)"><g><path d="M 0.328125 -27.453125 L 0.328125 -34.3125 L 24.453125 -34.3125 L 24.453125 -27.453125 L 16.3125 -27.453125 L 16.3125 0 L 8.484375 0 L 8.484375 -27.453125 Z M 0.328125 -27.453125 "/></g></g></g><g fill="#232323" fill-opacity="1"><g transform="translate(134.746086, 219.696725)"><g><path d="M 0.953125 -17.171875 C 0.953125 -22.140625 2.644531 -26.34375 6.03125 -29.78125 C 9.414062 -33.21875 13.492188 -34.9375 18.265625 -34.9375 C 23.054688 -34.9375 27.128906 -33.222656 30.484375 -29.796875 C 33.835938 -26.378906 35.515625 -22.171875 35.515625 -17.171875 C 35.515625 -12.160156 33.863281 -7.941406 30.5625 -4.515625 C 27.269531 -1.085938 23.171875 0.625 18.265625 0.625 C 13.242188 0.625 9.101562 -1.070312 5.84375 -4.46875 C 2.582031 -7.863281 0.953125 -12.097656 0.953125 -17.171875 Z M 9.40625 -17.171875 C 9.40625 -15.367188 9.679688 -13.726562 10.234375 -12.25 C 10.785156 -10.769531 11.753906 -9.515625 13.140625 -8.484375 C 14.523438 -7.460938 16.234375 -6.953125 18.265625 -6.953125 C 21.171875 -6.953125 23.363281 -7.945312 24.84375 -9.9375 C 26.332031 -11.9375 27.078125 -14.347656 27.078125 -17.171875 C 27.078125 -19.972656 26.320312 -22.378906 24.8125 -24.390625 C 23.300781 -26.398438 21.117188 -27.40625 18.265625 -27.40625 C 15.429688 -27.40625 13.242188 -26.398438 11.703125 -24.390625 C 10.171875 -22.378906 9.40625 -19.972656 9.40625 -17.171875 Z M 9.40625 -17.171875 "/></g></g></g><g fill="#232323" fill-opacity="1"><g transform="translate(167.684469, 219.696725)"><g/></g></g><g fill="#232323" fill-opacity="1"><g transform="translate(175.502614, 219.696725)"><g><path d="M 17.421875 -34.3125 L 17.421875 -9.6875 C 17.421875 -6.332031 16.5 -3.773438 14.65625 -2.015625 C 12.8125 -0.253906 10.171875 0.625 6.734375 0.625 C 5.816406 0.625 4.914062 0.507812 4.03125 0.28125 C 3.144531 0.0625 2.394531 -0.203125 1.78125 -0.515625 C 1.175781 -0.835938 0.628906 -1.164062 0.140625 -1.5 C -0.335938 -1.832031 -0.691406 -2.109375 -0.921875 -2.328125 L -1.296875 -2.65625 L 1.203125 -9.1875 C 2.835938 -7.632812 4.320312 -6.859375 5.65625 -6.859375 C 6.84375 -6.859375 7.796875 -7.253906 8.515625 -8.046875 C 9.242188 -8.835938 9.609375 -10.050781 9.609375 -11.6875 L 9.609375 -34.3125 Z M 17.421875 -34.3125 "/></g></g></g><g fill="#232323" fill-opacity="1"><g transform="translate(191.472362, 219.696725)"><g><path d="M 0.953125 -17.171875 C 0.953125 -22.140625 2.644531 -26.34375 6.03125 -29.78125 C 9.414062 -33.21875 13.492188 -34.9375 18.265625 -34.9375 C 23.054688 -34.9375 27.128906 -33.222656 30.484375 -29.796875 C 33.835938 -26.378906 35.515625 -22.171875 35.515625 -17.171875 C 35.515625 -12.160156 33.863281 -7.941406 30.5625 -4.515625 C 27.269531 -1.085938 23.171875 0.625 18.265625 0.625 C 13.242188 0.625 9.101562 -1.070312 5.84375 -4.46875 C 2.582031 -7.863281 0.953125 -12.097656 0.953125 -17.171875 Z M 9.40625 -17.171875 C 9.40625 -15.367188 9.679688 -13.726562 10.234375 -12.25 C 10.785156 -10.769531 11.753906 -9.515625 13.140625 -8.484375 C 14.523438 -7.460938 16.234375 -6.953125 18.265625 -6.953125 C 21.171875 -6.953125 23.363281 -7.945312 24.84375 -9.9375 C 26.332031 -11.9375 27.078125 -14.347656 27.078125 -17.171875 C 27.078125 -19.972656 26.320312 -22.378906 24.8125 -24.390625 C 23.300781 -26.398438 21.117188 -27.40625 18.265625 -27.40625 C 15.429688 -27.40625 13.242188 -26.398438 11.703125 -24.390625 C 10.171875 -22.378906 9.40625 -19.972656 9.40625 -17.171875 Z M 9.40625 -17.171875 "/></g></g></g><g fill="#232323" fill-opacity="1"><g transform="translate(224.410745, 219.696725)"><g><path d="M 10.3125 -34.3125 L 10.3125 0 L 2.5 0 L 2.5 -34.3125 Z M 10.3125 -34.3125 "/></g></g></g><g fill="#232323" fill-opacity="1"><g transform="translate(233.684533, 219.696725)"><g><path d="M 10.3125 -21.296875 L 10.3125 0 L 2.5 0 L 2.5 -34.3125 L 10.3125 -34.3125 L 23.953125 -13.015625 L 24.046875 -13.015625 L 24.046875 -34.3125 L 31.859375 -34.3125 L 31.859375 0 L 24.046875 0 L 10.40625 -21.296875 Z M 10.3125 -21.296875 "/></g></g></g><g fill="#232323" fill-opacity="1"><g transform="translate(264.501834, 219.696725)"><g><path d="M 7.078125 -24.125 L 0.953125 -27.078125 C 0.953125 -27.191406 1.035156 -27.488281 1.203125 -27.96875 C 1.367188 -28.457031 1.703125 -29.109375 2.203125 -29.921875 C 2.703125 -30.742188 3.332031 -31.515625 4.09375 -32.234375 C 4.851562 -32.953125 5.925781 -33.582031 7.3125 -34.125 C 8.707031 -34.664062 10.273438 -34.9375 12.015625 -34.9375 C 15.234375 -34.9375 18.003906 -33.992188 20.328125 -32.109375 C 22.660156 -30.222656 23.828125 -27.851562 23.828125 -25 C 23.828125 -21.476562 21.484375 -18.71875 16.796875 -16.71875 C 16.160156 -16.445312 15.757812 -16.066406 15.59375 -15.578125 C 15.425781 -15.085938 15.34375 -14.414062 15.34375 -13.5625 L 15.34375 -11.234375 L 8.484375 -11.234375 L 8.484375 -15.765625 C 8.484375 -16.515625 8.507812 -17.101562 8.5625 -17.53125 C 8.625 -17.957031 8.804688 -18.425781 9.109375 -18.9375 C 9.410156 -19.457031 9.851562 -19.910156 10.4375 -20.296875 C 10.882812 -20.578125 11.484375 -20.90625 12.234375 -21.28125 C 12.984375 -21.65625 13.535156 -21.953125 13.890625 -22.171875 C 14.253906 -22.390625 14.585938 -22.738281 14.890625 -23.21875 C 15.191406 -23.707031 15.34375 -24.300781 15.34375 -25 C 15.34375 -26 15.015625 -26.816406 14.359375 -27.453125 C 13.710938 -28.085938 12.921875 -28.40625 11.984375 -28.40625 C 10.617188 -28.40625 9.523438 -27.96875 8.703125 -27.09375 C 7.890625 -26.21875 7.347656 -25.226562 7.078125 -24.125 Z M 11.890625 -8.90625 C 13.222656 -8.90625 14.351562 -8.4375 15.28125 -7.5 C 16.207031 -6.570312 16.671875 -5.445312 16.671875 -4.125 C 16.671875 -2.8125 16.207031 -1.691406 15.28125 -0.765625 C 14.351562 0.160156 13.222656 0.625 11.890625 0.625 C 10.585938 0.625 9.472656 0.160156 8.546875 -0.765625 C 7.617188 -1.691406 7.15625 -2.8125 7.15625 -4.125 C 7.15625 -5.445312 7.617188 -6.570312 8.546875 -7.5 C 9.472656 -8.4375 10.585938 -8.90625 11.890625 -8.90625 Z M 11.890625 -8.90625 "/></g></g></g><g fill="#0e4644" fill-opacity="1"><g transform="translate(81.20206, 177.053249)"><g><path d="M 10.3125 -13.765625 L 10.3125 0 L 2.5 0 L 2.5 -34.3125 L 10.3125 -34.3125 L 10.3125 -20.625 L 21.375 -20.625 L 21.375 -34.3125 L 29.203125 -34.3125 L 29.203125 0 L 21.375 0 L 21.375 -13.765625 Z M 10.3125 -13.765625 "/></g></g></g><g fill="#0e4644" fill-opacity="1"><g transform="translate(110.979954, 177.053249)"><g><path d="M 0.953125 -17.171875 C 0.953125 -22.140625 2.644531 -26.34375 6.03125 -29.78125 C 9.414062 -33.21875 13.492188 -34.9375 18.265625 -34.9375 C 23.054688 -34.9375 27.128906 -33.222656 30.484375 -29.796875 C 33.835938 -26.378906 35.515625 -22.171875 35.515625 -17.171875 C 35.515625 -12.160156 33.863281 -7.941406 30.5625 -4.515625 C 27.269531 -1.085938 23.171875 0.625 18.265625 0.625 C 13.242188 0.625 9.101562 -1.070312 5.84375 -4.46875 C 2.582031 -7.863281 0.953125 -12.097656 0.953125 -17.171875 Z M 9.40625 -17.171875 C 9.40625 -15.367188 9.679688 -13.726562 10.234375 -12.25 C 10.785156 -10.769531 11.753906 -9.515625 13.140625 -8.484375 C 14.523438 -7.460938 16.234375 -6.953125 18.265625 -6.953125 C 21.171875 -6.953125 23.363281 -7.945312 24.84375 -9.9375 C 26.332031 -11.9375 27.078125 -14.347656 27.078125 -17.171875 C 27.078125 -19.972656 26.320312 -22.378906 24.8125 -24.390625 C 23.300781 -26.398438 21.117188 -27.40625 18.265625 -27.40625 C 15.429688 -27.40625 13.242188 -26.398438 11.703125 -24.390625 C 10.171875 -22.378906 9.40625 -19.972656 9.40625 -17.171875 Z M 9.40625 -17.171875 "/></g></g></g><g fill="#0e4644" fill-opacity="1"><g transform="translate(145.540677, 177.053249)"><g><path d="M 28.828125 0 L 23.328125 -19.265625 L 17.84375 0 L 9.15625 0 L -0.625 -34.3125 L 8.0625 -34.3125 L 13.9375 -10.765625 L 14.140625 -10.765625 L 20.375 -34.3125 L 26.28125 -34.3125 L 32.53125 -10.765625 L 32.734375 -10.765625 L 38.59375 -34.3125 L 47.25 -34.3125 L 37.46875 0 Z M 28.828125 0 "/></g></g></g><g clip-path="url(#0985618cb6)"><path fill="#1b73e8" d="M 64.015625 154.253906 C 64.015625 154.253906 82.21875 82.148438 154.296875 63.96875 L 64.015625 64.0625 Z M 64.015625 154.253906 " fill-opacity="1" fill-rule="nonzero"/></g><g clip-path="url(#4118b77816)"><path fill="#289947" d="M 310.675781 220.4375 C 310.675781 220.4375 292.472656 292.539062 220.394531 310.71875 L 310.675781 310.628906 Z M 310.675781 220.4375 " fill-opacity="1" fill-rule="nonzero"/></g><g clip-path="url(#3730d7cbc0)"><path fill="#fcc526" d="M 220.4375 64.015625 C 220.4375 64.015625 292.539062 82.21875 310.71875 154.296875 L 310.628906 64.015625 Z M 220.4375 64.015625 " fill-opacity="1" fill-rule="nonzero"/></g><g clip-path="url(#77dc111881)"><path fill="#df372c" d="M 154.253906 310.675781 C 154.253906 310.675781 82.148438 292.472656 63.96875 220.394531 L 64.0625 310.675781 Z M 154.253906 310.675781 " fill-opacity="1" fill-rule="nonzero"/></g></svg>