<svg xmlns="http://www.w3.org/2000/svg" xmlns:xlink="http://www.w3.org/1999/xlink" width="500" zoomAndPan="magnify" viewBox="0 0 375 374.999991" height="500" preserveAspectRatio="xMidYMid meet" version="1.0"><defs><g/><clipPath id="d4b93230df"><path d="M 64 56.25 L 155 56.25 L 155 147 L 64 147 Z M 64 56.25 " clip-rule="nonzero"/></clipPath><clipPath id="bff71a3c95"><path d="M 220 212 L 310.71875 212 L 310.71875 303 L 220 303 Z M 220 212 " clip-rule="nonzero"/></clipPath><clipPath id="451296a86b"><path d="M 220 56.25 L 310.71875 56.25 L 310.71875 147 L 220 147 Z M 220 56.25 " clip-rule="nonzero"/></clipPath><clipPath id="06b12b781f"><path d="M 63.96875 212 L 155 212 L 155 303 L 63.96875 303 Z M 63.96875 212 " clip-rule="nonzero"/></clipPath></defs><rect x="-37.5" width="450" fill="#ffffff" y="-37.499999" height="449.999989" fill-opacity="1"/><rect x="-37.5" width="450" fill="#ffffff" y="-37.499999" height="449.999989" fill-opacity="1"/><g fill="#232323" fill-opacity="1"><g transform="translate(159.357781, 222.700005)"><g><path d="M 20.21875 -31.34375 L 20.21875 -25.078125 L 9.421875 -25.078125 L 9.421875 -18.84375 L 19.765625 -18.84375 L 19.765625 -12.578125 L 9.421875 -12.578125 L 9.421875 -6.265625 L 20.21875 -6.265625 L 20.21875 0 L 2.28125 0 L 2.28125 -31.34375 Z M 20.21875 -31.34375 "/></g></g></g><g fill="#232323" fill-opacity="1"><g transform="translate(178.163274, 222.700005)"><g><path d="M 12.078125 0 L -1.0625 -31.34375 L 6.984375 -31.34375 L 14.890625 -10.75 L 22.796875 -31.34375 L 30.859375 -31.34375 L 17.703125 0 Z M 12.078125 0 "/></g></g></g><g fill="#232323" fill-opacity="1"><g transform="translate(204.719185, 222.700005)"><g><path d="M 20.21875 -31.34375 L 20.21875 -25.078125 L 9.421875 -25.078125 L 9.421875 -18.84375 L 19.765625 -18.84375 L 19.765625 -12.578125 L 9.421875 -12.578125 L 9.421875 -6.265625 L 20.21875 -6.265625 L 20.21875 0 L 2.28125 0 L 2.28125 -31.34375 Z M 20.21875 -31.34375 "/></g></g></g><g fill="#232323" fill-opacity="1"><g transform="translate(223.524676, 222.700005)"><g><path d="M 9.421875 -19.453125 L 9.421875 0 L 2.28125 0 L 2.28125 -31.34375 L 9.421875 -31.34375 L 21.890625 -11.890625 L 21.96875 -11.890625 L 21.96875 -31.34375 L 29.109375 -31.34375 L 29.109375 0 L 21.96875 0 L 9.5 -19.453125 Z M 9.421875 -19.453125 "/></g></g></g><g fill="#232323" fill-opacity="1"><g transform="translate(251.676258, 222.700005)"><g><path d="M 0.296875 -25.078125 L 0.296875 -31.34375 L 22.34375 -31.34375 L 22.34375 -25.078125 L 14.890625 -25.078125 L 14.890625 0 L 7.75 0 L 7.75 -25.078125 Z M 0.296875 -25.078125 "/></g></g></g><g fill="#232323" fill-opacity="1"><g transform="translate(271.089625, 222.700005)"><g><path d="M 13.828125 -31.921875 C 15.523438 -31.921875 17.179688 -31.671875 18.796875 -31.171875 C 20.421875 -30.679688 21.628906 -30.195312 22.421875 -29.71875 L 23.5625 -28.953125 L 20.671875 -23.25 C 20.441406 -23.40625 20.125 -23.601562 19.71875 -23.84375 C 19.3125 -24.082031 18.550781 -24.40625 17.4375 -24.8125 C 16.320312 -25.21875 15.285156 -25.421875 14.328125 -25.421875 C 13.140625 -25.421875 12.222656 -25.164062 11.578125 -24.65625 C 10.929688 -24.15625 10.609375 -23.472656 10.609375 -22.609375 C 10.609375 -22.179688 10.757812 -21.78125 11.0625 -21.40625 C 11.363281 -21.039062 11.878906 -20.648438 12.609375 -20.234375 C 13.347656 -19.816406 13.992188 -19.476562 14.546875 -19.21875 C 15.109375 -18.96875 15.972656 -18.59375 17.140625 -18.09375 C 19.160156 -17.226562 20.882812 -16.050781 22.3125 -14.5625 C 23.75 -13.082031 24.46875 -11.40625 24.46875 -9.53125 C 24.46875 -7.738281 24.144531 -6.171875 23.5 -4.828125 C 22.851562 -3.484375 21.96875 -2.429688 20.84375 -1.671875 C 19.71875 -0.910156 18.46875 -0.347656 17.09375 0.015625 C 15.726562 0.378906 14.25 0.5625 12.65625 0.5625 C 11.289062 0.5625 9.945312 0.421875 8.625 0.140625 C 7.3125 -0.128906 6.207031 -0.472656 5.3125 -0.890625 C 4.425781 -1.304688 3.628906 -1.71875 2.921875 -2.125 C 2.210938 -2.53125 1.695312 -2.875 1.375 -3.15625 L 0.875 -3.578125 L 4.453125 -9.578125 C 4.753906 -9.328125 5.171875 -9.003906 5.703125 -8.609375 C 6.234375 -8.210938 7.175781 -7.6875 8.53125 -7.03125 C 9.882812 -6.375 11.082031 -6.046875 12.125 -6.046875 C 15.132812 -6.046875 16.640625 -7.070312 16.640625 -9.125 C 16.640625 -9.550781 16.53125 -9.945312 16.3125 -10.3125 C 16.101562 -10.6875 15.722656 -11.054688 15.171875 -11.421875 C 14.628906 -11.785156 14.148438 -12.070312 13.734375 -12.28125 C 13.316406 -12.5 12.632812 -12.832031 11.6875 -13.28125 C 10.738281 -13.726562 10.035156 -14.0625 9.578125 -14.28125 C 7.671875 -15.21875 6.195312 -16.390625 5.15625 -17.796875 C 4.125 -19.203125 3.609375 -20.71875 3.609375 -22.34375 C 3.609375 -25.15625 4.644531 -27.453125 6.71875 -29.234375 C 8.800781 -31.023438 11.171875 -31.921875 13.828125 -31.921875 Z M 13.828125 -31.921875 "/></g></g></g><g fill="#0e4644" fill-opacity="1"><g transform="translate(70.369848, 177.799968)"><g><path d="M 26.375 -31.34375 L 26.375 -11.140625 C 26.375 -7.285156 25.332031 -4.367188 23.25 -2.390625 C 21.175781 -0.421875 18.132812 0.5625 14.125 0.5625 C 10.125 0.5625 7.085938 -0.421875 5.015625 -2.390625 C 2.941406 -4.367188 1.90625 -7.285156 1.90625 -11.140625 L 1.90625 -31.34375 L 9.046875 -31.34375 L 9.046875 -13.21875 C 9.046875 -10.6875 9.441406 -8.925781 10.234375 -7.9375 C 11.035156 -6.945312 12.332031 -6.453125 14.125 -6.453125 C 15.925781 -6.453125 17.226562 -6.945312 18.03125 -7.9375 C 18.832031 -8.925781 19.234375 -10.6875 19.234375 -13.21875 L 19.234375 -31.34375 Z M 26.375 -31.34375 "/></g></g></g><g fill="#0e4644" fill-opacity="1"><g transform="translate(96.888075, 177.799968)"><g><path d="M 2.28125 -31.34375 L 13.71875 -31.34375 C 16.90625 -31.34375 19.488281 -30.519531 21.46875 -28.875 C 23.445312 -27.226562 24.4375 -24.832031 24.4375 -21.6875 C 24.4375 -18.550781 23.4375 -16.085938 21.4375 -14.296875 C 19.4375 -12.515625 16.863281 -11.625 13.71875 -11.625 L 9.421875 -11.625 L 9.421875 0 L 2.28125 0 Z M 9.421875 -17.328125 L 11.4375 -17.328125 C 13.03125 -17.328125 14.335938 -17.648438 15.359375 -18.296875 C 16.390625 -18.941406 16.90625 -20 16.90625 -21.46875 C 16.90625 -22.96875 16.390625 -24.039062 15.359375 -24.6875 C 14.335938 -25.332031 13.03125 -25.65625 11.4375 -25.65625 L 9.421875 -25.65625 Z M 9.421875 -17.328125 "/></g></g></g><g fill="#0e4644" fill-opacity="1"><g transform="translate(120.442902, 177.799968)"><g><path d="M 18.96875 -6.453125 C 20.050781 -6.453125 21.101562 -6.617188 22.125 -6.953125 C 23.15625 -7.285156 23.910156 -7.601562 24.390625 -7.90625 L 25.125 -8.390625 L 28.15625 -2.3125 C 28.050781 -2.238281 27.910156 -2.140625 27.734375 -2.015625 C 27.554688 -1.890625 27.144531 -1.65625 26.5 -1.3125 C 25.851562 -0.96875 25.160156 -0.664062 24.421875 -0.40625 C 23.691406 -0.15625 22.734375 0.0664062 21.546875 0.265625 C 20.359375 0.460938 19.128906 0.5625 17.859375 0.5625 C 14.941406 0.5625 12.175781 -0.148438 9.5625 -1.578125 C 6.957031 -3.003906 4.859375 -4.972656 3.265625 -7.484375 C 1.671875 -9.992188 0.875 -12.707031 0.875 -15.625 C 0.875 -17.820312 1.34375 -19.929688 2.28125 -21.953125 C 3.21875 -23.984375 4.460938 -25.722656 6.015625 -27.171875 C 7.578125 -28.617188 9.394531 -29.769531 11.46875 -30.625 C 13.550781 -31.488281 15.679688 -31.921875 17.859375 -31.921875 C 19.890625 -31.921875 21.757812 -31.675781 23.46875 -31.1875 C 25.175781 -30.707031 26.382812 -30.226562 27.09375 -29.75 L 28.15625 -29.03125 L 25.125 -22.953125 C 24.945312 -23.109375 24.675781 -23.289062 24.3125 -23.5 C 23.957031 -23.71875 23.25 -24.003906 22.1875 -24.359375 C 21.125 -24.710938 20.050781 -24.890625 18.96875 -24.890625 C 17.238281 -24.890625 15.691406 -24.609375 14.328125 -24.046875 C 12.960938 -23.492188 11.878906 -22.757812 11.078125 -21.84375 C 10.273438 -20.9375 9.664062 -19.957031 9.25 -18.90625 C 8.832031 -17.851562 8.625 -16.78125 8.625 -15.6875 C 8.625 -13.3125 9.515625 -11.175781 11.296875 -9.28125 C 13.085938 -7.394531 15.644531 -6.453125 18.96875 -6.453125 Z M 18.96875 -6.453125 "/></g></g></g><g fill="#0e4644" fill-opacity="1"><g transform="translate(147.303059, 177.799968)"><g><path d="M 0.875 -15.6875 C 0.875 -20.226562 2.414062 -24.066406 5.5 -27.203125 C 8.59375 -30.347656 12.320312 -31.921875 16.6875 -31.921875 C 21.0625 -31.921875 24.78125 -30.351562 27.84375 -27.21875 C 30.914062 -24.09375 32.453125 -20.25 32.453125 -15.6875 C 32.453125 -11.101562 30.941406 -7.25 27.921875 -4.125 C 24.910156 -1 21.164062 0.5625 16.6875 0.5625 C 12.09375 0.5625 8.304688 -0.984375 5.328125 -4.078125 C 2.359375 -7.179688 0.875 -11.050781 0.875 -15.6875 Z M 8.59375 -15.6875 C 8.59375 -14.039062 8.84375 -12.539062 9.34375 -11.1875 C 9.851562 -9.832031 10.738281 -8.6875 12 -7.75 C 13.269531 -6.8125 14.832031 -6.34375 16.6875 -6.34375 C 19.34375 -6.34375 21.347656 -7.253906 22.703125 -9.078125 C 24.054688 -10.898438 24.734375 -13.101562 24.734375 -15.6875 C 24.734375 -18.25 24.039062 -20.445312 22.65625 -22.28125 C 21.28125 -24.125 19.289062 -25.046875 16.6875 -25.046875 C 14.101562 -25.046875 12.109375 -24.125 10.703125 -22.28125 C 9.296875 -20.445312 8.59375 -18.25 8.59375 -15.6875 Z M 8.59375 -15.6875 "/></g></g></g><g fill="#0e4644" fill-opacity="1"><g transform="translate(178.87425, 177.799968)"><g><path d="M 28.203125 0 L 26.71875 -18.578125 L 26.53125 -18.578125 L 20.109375 -0.1875 L 15.84375 -0.1875 L 9.421875 -18.578125 L 9.234375 -18.578125 L 7.75 0 L 0.609375 0 L 3.421875 -31.34375 L 11.015625 -31.34375 L 17.96875 -13.265625 L 24.921875 -31.34375 L 32.53125 -31.34375 L 35.34375 0 Z M 28.203125 0 "/></g></g></g><g fill="#0e4644" fill-opacity="1"><g transform="translate(213.066906, 177.799968)"><g><path d="M 9.421875 -31.34375 L 9.421875 0 L 2.28125 0 L 2.28125 -31.34375 Z M 9.421875 -31.34375 "/></g></g></g><g fill="#0e4644" fill-opacity="1"><g transform="translate(223.020507, 177.799968)"><g><path d="M 9.421875 -19.453125 L 9.421875 0 L 2.28125 0 L 2.28125 -31.34375 L 9.421875 -31.34375 L 21.890625 -11.890625 L 21.96875 -11.890625 L 21.96875 -31.34375 L 29.109375 -31.34375 L 29.109375 0 L 21.96875 0 L 9.5 -19.453125 Z M 9.421875 -19.453125 "/></g></g></g><g fill="#0e4644" fill-opacity="1"><g transform="translate(252.654088, 177.799968)"><g><path d="M 30.625 -17.5625 L 30.625 -10.75 C 29.8125 -7.03125 28.035156 -4.210938 25.296875 -2.296875 C 22.566406 -0.390625 19.519531 0.5625 16.15625 0.5625 C 11.914062 0.5625 8.304688 -1.019531 5.328125 -4.1875 C 2.359375 -7.351562 0.875 -11.175781 0.875 -15.65625 C 0.875 -20.21875 2.328125 -24.066406 5.234375 -27.203125 C 8.148438 -30.347656 11.789062 -31.921875 16.15625 -31.921875 C 21.238281 -31.921875 25.265625 -30.132812 28.234375 -26.5625 L 23.5625 -21.4375 C 21.882812 -24.113281 19.550781 -25.453125 16.5625 -25.453125 C 14.363281 -25.453125 12.484375 -24.492188 10.921875 -22.578125 C 9.367188 -20.671875 8.59375 -18.363281 8.59375 -15.65625 C 8.59375 -13 9.367188 -10.722656 10.921875 -8.828125 C 12.484375 -6.941406 14.363281 -6 16.5625 -6 C 18.382812 -6 19.972656 -6.550781 21.328125 -7.65625 C 22.691406 -8.757812 23.375 -10.222656 23.375 -12.046875 L 16.15625 -12.046875 L 16.15625 -17.5625 Z M 30.625 -17.5625 "/></g></g></g><g clip-path="url(#d4b93230df)"><path fill="#1b73e8" d="M 64.015625 146.53125 C 64.015625 146.53125 82.21875 74.429688 154.296875 56.25 L 64.015625 56.339844 Z M 64.015625 146.53125 " fill-opacity="1" fill-rule="nonzero"/></g><g clip-path="url(#bff71a3c95)"><path fill="#289947" d="M 310.675781 212.71875 C 310.675781 212.71875 292.472656 284.820312 220.394531 303 L 310.675781 302.910156 Z M 310.675781 212.71875 " fill-opacity="1" fill-rule="nonzero"/></g><g clip-path="url(#451296a86b)"><path fill="#fcc526" d="M 220.4375 56.296875 C 220.4375 56.296875 292.539062 74.5 310.71875 146.578125 L 310.628906 56.296875 Z M 220.4375 56.296875 " fill-opacity="1" fill-rule="nonzero"/></g><g clip-path="url(#06b12b781f)"><path fill="#df372c" d="M 154.253906 302.953125 C 154.253906 302.953125 82.148438 284.75 63.96875 212.671875 L 64.0625 302.953125 Z M 154.253906 302.953125 " fill-opacity="1" fill-rule="nonzero"/></g></svg>